<mxfile host="Electron" modified="2024-02-05T09:24:35.537Z" agent="Mozilla/5.0 (Macintosh; Intel Mac OS X 10_15_7) AppleWebKit/537.36 (KHTML, like Gecko) draw.io/23.0.2 Chrome/120.0.6099.109 Electron/28.1.0 Safari/537.36" etag="Xwu8BRbcOlpoIhWcc9Ge" version="23.0.2" type="device">
  <diagram name="第 1 页" id="1MJY-K0O8pv3mbvC8SUG">
    <mxGraphModel dx="2998" dy="1113" grid="1" gridSize="10" guides="1" tooltips="1" connect="1" arrows="1" fold="1" page="1" pageScale="1" pageWidth="827" pageHeight="1169" math="0" shadow="0">
      <root>
        <mxCell id="0" />
        <mxCell id="1" parent="0" />
        <mxCell id="N3EoBCBhOJMtYulJdJZf-1" style="edgeStyle=orthogonalEdgeStyle;rounded=0;orthogonalLoop=1;jettySize=auto;html=1;exitX=0.5;exitY=1;exitDx=0;exitDy=0;entryX=0.5;entryY=0;entryDx=0;entryDy=0;" edge="1" parent="1" source="N3EoBCBhOJMtYulJdJZf-2" target="N3EoBCBhOJMtYulJdJZf-4">
          <mxGeometry relative="1" as="geometry" />
        </mxCell>
        <mxCell id="N3EoBCBhOJMtYulJdJZf-2" value="&lt;div style=&quot;background-color: rgb(255, 255, 255); font-family: Menlo, Monaco, &amp;quot;Courier New&amp;quot;, monospace; line-height: 18px;&quot;&gt;Check that account is valid&lt;/div&gt;" style="rounded=0;whiteSpace=wrap;html=1;" vertex="1" parent="1">
          <mxGeometry x="330" y="90" width="120" height="60" as="geometry" />
        </mxCell>
        <mxCell id="N3EoBCBhOJMtYulJdJZf-3" value="" style="edgeStyle=orthogonalEdgeStyle;rounded=0;orthogonalLoop=1;jettySize=auto;html=1;" edge="1" parent="1" source="N3EoBCBhOJMtYulJdJZf-4" target="N3EoBCBhOJMtYulJdJZf-8">
          <mxGeometry relative="1" as="geometry" />
        </mxCell>
        <mxCell id="N3EoBCBhOJMtYulJdJZf-4" value="&lt;div style=&quot;background-color: rgb(255, 255, 255); font-family: Menlo, Monaco, &amp;quot;Courier New&amp;quot;, monospace; line-height: 18px;&quot;&gt;Check arguments&lt;/div&gt;" style="rounded=0;whiteSpace=wrap;html=1;" vertex="1" parent="1">
          <mxGeometry x="330" y="180" width="120" height="60" as="geometry" />
        </mxCell>
        <mxCell id="N3EoBCBhOJMtYulJdJZf-5" value="&lt;div style=&quot;background-color: rgb(255, 255, 255); font-family: Menlo, Monaco, &amp;quot;Courier New&amp;quot;, monospace; line-height: 18px;&quot;&gt;acc_id&lt;/div&gt;" style="text;html=1;align=center;verticalAlign=middle;resizable=0;points=[];autosize=1;strokeColor=none;fillColor=none;" vertex="1" parent="1">
          <mxGeometry x="450" y="105" width="70" height="30" as="geometry" />
        </mxCell>
        <mxCell id="N3EoBCBhOJMtYulJdJZf-6" value="&lt;div style=&quot;background-color: rgb(255, 255, 255); font-family: Menlo, Monaco, &amp;quot;Courier New&amp;quot;, monospace; line-height: 18px;&quot;&gt;dest_uri&lt;/div&gt;" style="text;html=1;align=center;verticalAlign=middle;resizable=0;points=[];autosize=1;strokeColor=none;fillColor=none;" vertex="1" parent="1">
          <mxGeometry x="450" y="195" width="80" height="30" as="geometry" />
        </mxCell>
        <mxCell id="N3EoBCBhOJMtYulJdJZf-7" value="" style="edgeStyle=orthogonalEdgeStyle;rounded=0;orthogonalLoop=1;jettySize=auto;html=1;" edge="1" parent="1" source="N3EoBCBhOJMtYulJdJZf-8" target="N3EoBCBhOJMtYulJdJZf-10">
          <mxGeometry relative="1" as="geometry" />
        </mxCell>
        <mxCell id="N3EoBCBhOJMtYulJdJZf-8" value="&lt;div style=&quot;background-color: rgb(255, 255, 255); font-family: Menlo, Monaco, &amp;quot;Courier New&amp;quot;, monospace; line-height: 18px;&quot;&gt;PJSUA_LOCK&lt;/div&gt;" style="whiteSpace=wrap;html=1;rounded=0;" vertex="1" parent="1">
          <mxGeometry x="330" y="270" width="120" height="60" as="geometry" />
        </mxCell>
        <mxCell id="N3EoBCBhOJMtYulJdJZf-9" value="" style="edgeStyle=orthogonalEdgeStyle;rounded=0;orthogonalLoop=1;jettySize=auto;html=1;" edge="1" parent="1" source="N3EoBCBhOJMtYulJdJZf-10" target="N3EoBCBhOJMtYulJdJZf-13">
          <mxGeometry relative="1" as="geometry" />
        </mxCell>
        <mxCell id="N3EoBCBhOJMtYulJdJZf-10" value="获取并检查acc" style="rounded=0;whiteSpace=wrap;html=1;" vertex="1" parent="1">
          <mxGeometry x="330" y="360" width="120" height="60" as="geometry" />
        </mxCell>
        <mxCell id="N3EoBCBhOJMtYulJdJZf-11" value="&lt;div style=&quot;background-color: rgb(255, 255, 255); font-family: Menlo, Monaco, &amp;quot;Courier New&amp;quot;, monospace; line-height: 18px;&quot;&gt;acc = &amp;amp;pjsua_var.acc[&lt;span style=&quot;color: #808080;&quot;&gt;acc_id&lt;/span&gt;];&lt;/div&gt;" style="text;html=1;align=center;verticalAlign=middle;resizable=0;points=[];autosize=1;strokeColor=none;fillColor=none;" vertex="1" parent="1">
          <mxGeometry x="450" y="375" width="230" height="30" as="geometry" />
        </mxCell>
        <mxCell id="N3EoBCBhOJMtYulJdJZf-12" style="edgeStyle=orthogonalEdgeStyle;rounded=0;orthogonalLoop=1;jettySize=auto;html=1;exitX=0.5;exitY=1;exitDx=0;exitDy=0;entryX=0.5;entryY=0;entryDx=0;entryDy=0;" edge="1" parent="1" source="N3EoBCBhOJMtYulJdJZf-13" target="N3EoBCBhOJMtYulJdJZf-16">
          <mxGeometry relative="1" as="geometry" />
        </mxCell>
        <mxCell id="N3EoBCBhOJMtYulJdJZf-13" value="分配并检查call-id" style="rounded=0;whiteSpace=wrap;html=1;" vertex="1" parent="1">
          <mxGeometry x="330" y="448" width="120" height="60" as="geometry" />
        </mxCell>
        <mxCell id="N3EoBCBhOJMtYulJdJZf-14" value="&lt;div style=&quot;background-color: rgb(255, 255, 255); font-family: Menlo, Monaco, &amp;quot;Courier New&amp;quot;, monospace; line-height: 18px;&quot;&gt;alloc_call_id&lt;/div&gt;" style="text;html=1;align=center;verticalAlign=middle;resizable=0;points=[];autosize=1;strokeColor=none;fillColor=none;" vertex="1" parent="1">
          <mxGeometry x="450" y="463" width="120" height="30" as="geometry" />
        </mxCell>
        <mxCell id="N3EoBCBhOJMtYulJdJZf-15" style="edgeStyle=orthogonalEdgeStyle;rounded=0;orthogonalLoop=1;jettySize=auto;html=1;exitX=0.5;exitY=1;exitDx=0;exitDy=0;entryX=0.5;entryY=0;entryDx=0;entryDy=0;" edge="1" parent="1" source="N3EoBCBhOJMtYulJdJZf-16" target="N3EoBCBhOJMtYulJdJZf-19">
          <mxGeometry relative="1" as="geometry" />
        </mxCell>
        <mxCell id="N3EoBCBhOJMtYulJdJZf-16" value="&lt;div style=&quot;background-color: rgb(255, 255, 255); font-family: Menlo, Monaco, &amp;quot;Courier New&amp;quot;, monospace; line-height: 18px;&quot;&gt;Clear call descriptor&lt;/div&gt;" style="rounded=0;whiteSpace=wrap;html=1;" vertex="1" parent="1">
          <mxGeometry x="330" y="525" width="120" height="60" as="geometry" />
        </mxCell>
        <mxCell id="N3EoBCBhOJMtYulJdJZf-17" value="&lt;div style=&quot;background-color: rgb(255, 255, 255); font-family: Menlo, Monaco, &amp;quot;Courier New&amp;quot;, monospace; line-height: 18px;&quot;&gt;pjsua_var.calls[call_id]&lt;br&gt;&lt;/div&gt;" style="text;html=1;align=center;verticalAlign=middle;resizable=0;points=[];autosize=1;strokeColor=none;fillColor=none;" vertex="1" parent="1">
          <mxGeometry x="450" y="540" width="200" height="30" as="geometry" />
        </mxCell>
        <mxCell id="N3EoBCBhOJMtYulJdJZf-18" style="edgeStyle=orthogonalEdgeStyle;rounded=0;orthogonalLoop=1;jettySize=auto;html=1;exitX=0.5;exitY=1;exitDx=0;exitDy=0;entryX=0.5;entryY=0;entryDx=0;entryDy=0;" edge="1" parent="1" source="N3EoBCBhOJMtYulJdJZf-19" target="N3EoBCBhOJMtYulJdJZf-22">
          <mxGeometry relative="1" as="geometry" />
        </mxCell>
        <mxCell id="N3EoBCBhOJMtYulJdJZf-19" value="&lt;div style=&quot;background-color: rgb(255, 255, 255); font-family: Menlo, Monaco, &amp;quot;Courier New&amp;quot;, monospace; line-height: 18px;&quot;&gt;Associate session with account&lt;/div&gt;" style="rounded=0;whiteSpace=wrap;html=1;" vertex="1" parent="1">
          <mxGeometry x="330" y="610" width="120" height="60" as="geometry" />
        </mxCell>
        <mxCell id="N3EoBCBhOJMtYulJdJZf-20" value="&lt;div style=&quot;background-color: rgb(255, 255, 255); font-family: Menlo, Monaco, &amp;quot;Courier New&amp;quot;, monospace; line-height: 18px;&quot;&gt;&lt;div&gt;call-&amp;gt;acc_id = &lt;span style=&quot;color: #808080;&quot;&gt;acc_id&lt;/span&gt;;&lt;/div&gt;&lt;div&gt;    &lt;span style=&quot;color: #1f377f;&quot;&gt;call&lt;/span&gt;-&amp;gt;call_hold_type = &lt;span style=&quot;color: #1f377f;&quot;&gt;acc&lt;/span&gt;-&amp;gt;cfg.call_hold_type;&lt;/div&gt;&lt;/div&gt;" style="text;html=1;align=center;verticalAlign=middle;resizable=0;points=[];autosize=1;strokeColor=none;fillColor=none;" vertex="1" parent="1">
          <mxGeometry x="450" y="615" width="360" height="50" as="geometry" />
        </mxCell>
        <mxCell id="N3EoBCBhOJMtYulJdJZf-21" style="edgeStyle=orthogonalEdgeStyle;rounded=0;orthogonalLoop=1;jettySize=auto;html=1;exitX=0.5;exitY=1;exitDx=0;exitDy=0;entryX=0.5;entryY=0;entryDx=0;entryDy=0;" edge="1" parent="1" source="N3EoBCBhOJMtYulJdJZf-22" target="N3EoBCBhOJMtYulJdJZf-25">
          <mxGeometry relative="1" as="geometry" />
        </mxCell>
        <mxCell id="N3EoBCBhOJMtYulJdJZf-22" value="&lt;div style=&quot;background-color: rgb(255, 255, 255); font-family: Menlo, Monaco, &amp;quot;Courier New&amp;quot;, monospace; line-height: 18px;&quot;&gt;Generate per-session RTCP CNAME, according to RFC 7022&lt;/div&gt;" style="rounded=0;whiteSpace=wrap;html=1;" vertex="1" parent="1">
          <mxGeometry x="330" y="690" width="120" height="80" as="geometry" />
        </mxCell>
        <mxCell id="N3EoBCBhOJMtYulJdJZf-23" value="&lt;div style=&quot;background-color: rgb(255, 255, 255); font-family: Menlo, Monaco, &amp;quot;Courier New&amp;quot;, monospace; line-height: 18px;&quot;&gt;&lt;div&gt;    pj_create_random_string(&lt;span style=&quot;color: #1f377f;&quot;&gt;call&lt;/span&gt;-&amp;gt;cname_buf, &lt;span style=&quot;color: #1f377f;&quot;&gt;call&lt;/span&gt;-&amp;gt;cname.slen);&lt;/div&gt;&lt;br&gt;&lt;/div&gt;" style="text;html=1;align=center;verticalAlign=middle;resizable=0;points=[];autosize=1;strokeColor=none;fillColor=none;" vertex="1" parent="1">
          <mxGeometry x="450" y="710" width="450" height="50" as="geometry" />
        </mxCell>
        <mxCell id="N3EoBCBhOJMtYulJdJZf-24" style="edgeStyle=orthogonalEdgeStyle;rounded=0;orthogonalLoop=1;jettySize=auto;html=1;exitX=0.5;exitY=1;exitDx=0;exitDy=0;entryX=0.5;entryY=0;entryDx=0;entryDy=0;" edge="1" parent="1" source="N3EoBCBhOJMtYulJdJZf-25" target="N3EoBCBhOJMtYulJdJZf-28">
          <mxGeometry relative="1" as="geometry" />
        </mxCell>
        <mxCell id="N3EoBCBhOJMtYulJdJZf-25" value="&lt;div style=&quot;background-color: rgb(255, 255, 255); font-family: Menlo, Monaco, &amp;quot;Courier New&amp;quot;, monospace; line-height: 18px;&quot;&gt;Apply call setting&lt;/div&gt;" style="rounded=0;whiteSpace=wrap;html=1;" vertex="1" parent="1">
          <mxGeometry x="330" y="790" width="120" height="60" as="geometry" />
        </mxCell>
        <mxCell id="N3EoBCBhOJMtYulJdJZf-26" value="&lt;div style=&quot;background-color: rgb(255, 255, 255); font-family: Menlo, Monaco, &amp;quot;Courier New&amp;quot;, monospace; line-height: 18px;&quot;&gt;status = &lt;span style=&quot;color: #74531f;&quot;&gt;apply_call_setting&lt;/span&gt;(&lt;span style=&quot;color: #1f377f;&quot;&gt;call&lt;/span&gt;, &lt;span style=&quot;color: #808080;&quot;&gt;opt&lt;/span&gt;, &lt;span style=&quot;color: #8a1bff;&quot;&gt;NULL&lt;/span&gt;);&lt;/div&gt;" style="text;html=1;align=center;verticalAlign=middle;resizable=0;points=[];autosize=1;strokeColor=none;fillColor=none;" vertex="1" parent="1">
          <mxGeometry x="450" y="805" width="350" height="30" as="geometry" />
        </mxCell>
        <mxCell id="N3EoBCBhOJMtYulJdJZf-27" value="" style="edgeStyle=orthogonalEdgeStyle;rounded=0;orthogonalLoop=1;jettySize=auto;html=1;" edge="1" parent="1" source="N3EoBCBhOJMtYulJdJZf-28" target="N3EoBCBhOJMtYulJdJZf-31">
          <mxGeometry relative="1" as="geometry" />
        </mxCell>
        <mxCell id="N3EoBCBhOJMtYulJdJZf-28" value="创建声音设备&amp;nbsp;&amp;nbsp;" style="rounded=0;whiteSpace=wrap;html=1;" vertex="1" parent="1">
          <mxGeometry x="330" y="870" width="120" height="60" as="geometry" />
        </mxCell>
        <mxCell id="N3EoBCBhOJMtYulJdJZf-29" value="&lt;div style=&quot;background-color: rgb(255, 255, 255); font-family: Menlo, Monaco, &amp;quot;Courier New&amp;quot;, monospace; line-height: 18px;&quot;&gt;pjsua_set_snd_dev&lt;/div&gt;" style="text;html=1;align=center;verticalAlign=middle;resizable=0;points=[];autosize=1;strokeColor=none;fillColor=none;" vertex="1" parent="1">
          <mxGeometry x="450" y="885" width="150" height="30" as="geometry" />
        </mxCell>
        <mxCell id="N3EoBCBhOJMtYulJdJZf-30" value="" style="edgeStyle=orthogonalEdgeStyle;rounded=0;orthogonalLoop=1;jettySize=auto;html=1;" edge="1" parent="1" source="N3EoBCBhOJMtYulJdJZf-31" target="N3EoBCBhOJMtYulJdJZf-34">
          <mxGeometry relative="1" as="geometry" />
        </mxCell>
        <mxCell id="N3EoBCBhOJMtYulJdJZf-31" value="&lt;div style=&quot;background-color: rgb(255, 255, 255); font-family: Menlo, Monaco, &amp;quot;Courier New&amp;quot;, monospace; line-height: 18px;&quot;&gt;Verify and Parse that destination URI &lt;/div&gt;" style="rounded=0;whiteSpace=wrap;html=1;" vertex="1" parent="1">
          <mxGeometry x="330" y="950" width="120" height="60" as="geometry" />
        </mxCell>
        <mxCell id="N3EoBCBhOJMtYulJdJZf-32" value="&lt;div style=&quot;background-color: rgb(255, 255, 255); font-family: Menlo, Monaco, &amp;quot;Courier New&amp;quot;, monospace; line-height: 18px;&quot;&gt;uri = &lt;span style=&quot;color: #74531f;&quot;&gt;pjsip_parse_uri&lt;/span&gt;(&lt;span style=&quot;color: #1f377f;&quot;&gt;tmp_pool&lt;/span&gt;, &lt;span style=&quot;color: #1f377f;&quot;&gt;dup&lt;/span&gt;.ptr, &lt;span style=&quot;color: #1f377f;&quot;&gt;dup&lt;/span&gt;.slen, &lt;span style=&quot;color: #098658;&quot;&gt;0&lt;/span&gt;);&lt;/div&gt;" style="text;html=1;align=center;verticalAlign=middle;resizable=0;points=[];autosize=1;strokeColor=none;fillColor=none;" vertex="1" parent="1">
          <mxGeometry x="450" y="965" width="410" height="30" as="geometry" />
        </mxCell>
        <mxCell id="N3EoBCBhOJMtYulJdJZf-33" style="edgeStyle=orthogonalEdgeStyle;rounded=0;orthogonalLoop=1;jettySize=auto;html=1;exitX=0.5;exitY=0;exitDx=0;exitDy=0;entryX=0.5;entryY=1;entryDx=0;entryDy=0;" edge="1" parent="1" source="N3EoBCBhOJMtYulJdJZf-34" target="N3EoBCBhOJMtYulJdJZf-36">
          <mxGeometry relative="1" as="geometry" />
        </mxCell>
        <mxCell id="N3EoBCBhOJMtYulJdJZf-34" value="&lt;div style=&quot;background-color: rgb(255, 255, 255); font-family: Menlo, Monaco, &amp;quot;Courier New&amp;quot;, monospace; line-height: 18px;&quot;&gt;Mark call start time.&lt;/div&gt;" style="rounded=0;whiteSpace=wrap;html=1;" vertex="1" parent="1">
          <mxGeometry x="150" y="950" width="120" height="60" as="geometry" />
        </mxCell>
        <mxCell id="N3EoBCBhOJMtYulJdJZf-35" style="edgeStyle=orthogonalEdgeStyle;rounded=0;orthogonalLoop=1;jettySize=auto;html=1;exitX=0.5;exitY=0;exitDx=0;exitDy=0;entryX=0.5;entryY=1;entryDx=0;entryDy=0;" edge="1" parent="1" source="N3EoBCBhOJMtYulJdJZf-36" target="N3EoBCBhOJMtYulJdJZf-39">
          <mxGeometry relative="1" as="geometry" />
        </mxCell>
        <mxCell id="N3EoBCBhOJMtYulJdJZf-36" value="&lt;div style=&quot;background-color: rgb(255, 255, 255); font-family: Menlo, Monaco, &amp;quot;Courier New&amp;quot;, monospace; line-height: 18px;&quot;&gt;Reset first response time&lt;/div&gt;" style="rounded=0;whiteSpace=wrap;html=1;" vertex="1" parent="1">
          <mxGeometry x="150" y="870" width="120" height="60" as="geometry" />
        </mxCell>
        <mxCell id="N3EoBCBhOJMtYulJdJZf-37" value="&lt;div style=&quot;background-color: rgb(255, 255, 255); font-family: Menlo, Monaco, &amp;quot;Courier New&amp;quot;, monospace; line-height: 18px;&quot;&gt;pj_gettimeofday&lt;/div&gt;" style="text;html=1;align=center;verticalAlign=middle;resizable=0;points=[];autosize=1;strokeColor=none;fillColor=none;" vertex="1" parent="1">
          <mxGeometry x="20" y="885" width="130" height="30" as="geometry" />
        </mxCell>
        <mxCell id="N3EoBCBhOJMtYulJdJZf-38" style="edgeStyle=orthogonalEdgeStyle;rounded=0;orthogonalLoop=1;jettySize=auto;html=1;exitX=0.5;exitY=0;exitDx=0;exitDy=0;entryX=0.5;entryY=1;entryDx=0;entryDy=0;" edge="1" parent="1" source="N3EoBCBhOJMtYulJdJZf-39" target="N3EoBCBhOJMtYulJdJZf-41">
          <mxGeometry relative="1" as="geometry" />
        </mxCell>
        <mxCell id="N3EoBCBhOJMtYulJdJZf-39" value="&lt;div style=&quot;background-color: rgb(255, 255, 255); font-family: Menlo, Monaco, &amp;quot;Courier New&amp;quot;, monospace; line-height: 18px;&quot;&gt;Create suitable Contact header&lt;/div&gt;" style="rounded=0;whiteSpace=wrap;html=1;" vertex="1" parent="1">
          <mxGeometry x="150" y="790" width="120" height="60" as="geometry" />
        </mxCell>
        <mxCell id="N3EoBCBhOJMtYulJdJZf-40" value="" style="edgeStyle=orthogonalEdgeStyle;rounded=0;orthogonalLoop=1;jettySize=auto;html=1;" edge="1" parent="1" source="N3EoBCBhOJMtYulJdJZf-41" target="N3EoBCBhOJMtYulJdJZf-43">
          <mxGeometry relative="1" as="geometry" />
        </mxCell>
        <mxCell id="N3EoBCBhOJMtYulJdJZf-41" value="&lt;div style=&quot;background-color: rgb(255, 255, 255); font-family: Menlo, Monaco, &amp;quot;Courier New&amp;quot;, monospace; line-height: 18px;&quot;&gt;Create an UAC dialog&lt;/div&gt;" style="rounded=0;whiteSpace=wrap;html=1;" vertex="1" parent="1">
          <mxGeometry x="150" y="710" width="120" height="60" as="geometry" />
        </mxCell>
        <mxCell id="N3EoBCBhOJMtYulJdJZf-42" value="&lt;div style=&quot;background-color: rgb(255, 255, 255); font-family: Menlo, Monaco, &amp;quot;Courier New&amp;quot;, monospace; line-height: 18px;&quot;&gt;pjsip_dlg_create_uac&lt;/div&gt;" style="text;html=1;align=center;verticalAlign=middle;resizable=0;points=[];autosize=1;strokeColor=none;fillColor=none;" vertex="1" parent="1">
          <mxGeometry x="-20" y="730" width="170" height="30" as="geometry" />
        </mxCell>
        <mxCell id="N3EoBCBhOJMtYulJdJZf-43" value="&lt;div style=&quot;background-color: rgb(255, 255, 255); font-family: Menlo, Monaco, &amp;quot;Courier New&amp;quot;, monospace; line-height: 18px;&quot;&gt;Calculate call&#39;s secure level&lt;/div&gt;" style="whiteSpace=wrap;html=1;" vertex="1" parent="1">
          <mxGeometry x="150" y="630" width="120" height="60" as="geometry" />
        </mxCell>
        <mxCell id="N3EoBCBhOJMtYulJdJZf-44" value="初始化媒体流信道" style="whiteSpace=wrap;html=1;" vertex="1" parent="1">
          <mxGeometry x="150" y="550" width="120" height="60" as="geometry" />
        </mxCell>
        <mxCell id="N3EoBCBhOJMtYulJdJZf-45" value="&lt;div style=&quot;background-color: rgb(255, 255, 255); font-family: Menlo, Monaco, &amp;quot;Courier New&amp;quot;, monospace; line-height: 18px;&quot;&gt;pjsua_media_channel_init&lt;/div&gt;" style="text;html=1;align=center;verticalAlign=middle;resizable=0;points=[];autosize=1;strokeColor=none;fillColor=none;" vertex="1" parent="1">
          <mxGeometry x="-50" y="565" width="200" height="30" as="geometry" />
        </mxCell>
        <mxCell id="N3EoBCBhOJMtYulJdJZf-46" value="&lt;meta charset=&quot;utf-8&quot;&gt;&lt;div style=&quot;color: rgb(0, 0, 0); background-color: rgb(255, 255, 255); font-family: Menlo, Monaco, &amp;quot;Courier New&amp;quot;, monospace; font-weight: normal; font-size: 12px; line-height: 18px;&quot;&gt;&lt;div&gt;&lt;span style=&quot;color: #008000;&quot;&gt;Outgoing call callback when media transport creation is completed&lt;/span&gt;&lt;/div&gt;&lt;/div&gt;" style="whiteSpace=wrap;html=1;" vertex="1" parent="1">
          <mxGeometry x="150" y="420" width="120" height="110" as="geometry" />
        </mxCell>
      </root>
    </mxGraphModel>
  </diagram>
</mxfile>
